<svg width="107" height="45" viewBox="0 0 107 45" fill="none" xmlns="http://www.w3.org/2000/svg">
<path d="M1.58911 13.5051V3.552H5.07544C6.28312 3.552 7.19914 3.78442 7.82349 4.24927C8.44784 4.70955 8.76001 5.38631 8.76001 6.27954C8.76001 6.76717 8.63468 7.19784 8.38403 7.57153C8.13338 7.94067 7.78475 8.21183 7.33813 8.38501C7.84855 8.51261 8.24959 8.7701 8.54126 9.15747C8.83748 9.54484 8.9856 10.0188 8.9856 10.5793C8.9856 11.5364 8.68026 12.261 8.06958 12.7532C7.4589 13.2454 6.58846 13.496 5.45825 13.5051H1.58911ZM3.63989 9.17114V11.8577H5.39673C5.8798 11.8577 6.25578 11.7437 6.52466 11.5159C6.7981 11.2834 6.93481 10.9644 6.93481 10.5588C6.93481 9.64738 6.46313 9.18481 5.51978 9.17114H3.63989ZM3.63989 7.72192H5.15747C6.19198 7.70369 6.70923 7.29126 6.70923 6.48462C6.70923 6.03345 6.57707 5.70988 6.31274 5.51392C6.05298 5.3134 5.64054 5.21313 5.07544 5.21313H3.63989V7.72192ZM14.8303 12.7532C14.3427 13.3456 13.6682 13.6418 12.8069 13.6418C12.0139 13.6418 11.4078 13.414 10.9885 12.9583C10.5738 12.5025 10.3619 11.8349 10.3528 10.9553V6.10864H12.3284V10.887C12.3284 11.6571 12.6793 12.0422 13.3811 12.0422C14.051 12.0422 14.5113 11.8098 14.762 11.345V6.10864H16.7444V13.5051H14.885L14.8303 12.7532ZM22.2405 11.4612C22.2405 11.2196 22.1197 11.0305 21.8782 10.8938C21.6412 10.7525 21.2584 10.6272 20.7297 10.5178C18.9706 10.1487 18.0911 9.40129 18.0911 8.27563C18.0911 7.61938 18.3622 7.07251 18.9045 6.63501C19.4514 6.19295 20.1646 5.97192 21.0442 5.97192C21.983 5.97192 22.7327 6.19295 23.2932 6.63501C23.8583 7.07707 24.1409 7.65129 24.1409 8.35767H22.1653C22.1653 8.07511 22.0741 7.84269 21.8918 7.6604C21.7096 7.47355 21.4247 7.38013 21.0374 7.38013C20.7047 7.38013 20.4472 7.45532 20.2649 7.60571C20.0826 7.7561 19.9915 7.94751 19.9915 8.17993C19.9915 8.39868 20.094 8.57642 20.2991 8.71313C20.5087 8.8453 20.8596 8.96151 21.3518 9.06177C21.844 9.15747 22.2587 9.26685 22.5959 9.38989C23.6396 9.77271 24.1614 10.4358 24.1614 11.3792C24.1614 12.0536 23.872 12.6005 23.2932 13.0198C22.7144 13.4345 21.967 13.6418 21.051 13.6418C20.4312 13.6418 19.8798 13.5325 19.3967 13.3137C18.9182 13.0904 18.5422 12.7874 18.2688 12.4045C17.9954 12.0172 17.8586 11.6002 17.8586 11.1536H19.7317C19.7499 11.5045 19.8798 11.7734 20.1213 11.9602C20.3629 12.1471 20.6864 12.2405 21.092 12.2405C21.4703 12.2405 21.7551 12.1698 21.9465 12.0286C22.1425 11.8827 22.2405 11.6936 22.2405 11.4612ZM29.7258 13.5051C29.6347 13.3274 29.5686 13.1064 29.5276 12.842C29.0491 13.3752 28.427 13.6418 27.6614 13.6418C26.9368 13.6418 26.3352 13.4322 25.8567 13.0129C25.3827 12.5937 25.1458 12.065 25.1458 11.427C25.1458 10.6431 25.4351 10.0416 26.0139 9.62231C26.5972 9.20304 27.4381 8.99113 28.5364 8.98657H29.4456V8.56274C29.4456 8.22095 29.3567 7.94751 29.179 7.74243C29.0058 7.53735 28.7301 7.43481 28.3518 7.43481C28.0191 7.43481 27.7571 7.51457 27.5657 7.67407C27.3788 7.83358 27.2854 8.05233 27.2854 8.33032H25.3098C25.3098 7.90194 25.442 7.50545 25.7063 7.14087C25.9706 6.77629 26.3443 6.49146 26.8274 6.28638C27.3105 6.07674 27.8528 5.97192 28.4543 5.97192C29.3658 5.97192 30.0881 6.20207 30.6213 6.66235C31.1591 7.11808 31.428 7.76066 31.428 8.59009V11.7961C31.4325 12.498 31.5305 13.0289 31.7219 13.3889V13.5051H29.7258ZM28.092 12.1311C28.3837 12.1311 28.6526 12.0673 28.8987 11.9397C29.1448 11.8075 29.3271 11.6321 29.4456 11.4133V10.1418H28.7073C27.7183 10.1418 27.192 10.4836 27.1282 11.1672L27.1213 11.2834C27.1213 11.5295 27.2079 11.7323 27.3811 11.8918C27.5543 12.0514 27.7913 12.1311 28.092 12.1311ZM34.7639 6.10864L34.8254 6.96313C35.3541 6.30233 36.0627 5.97192 36.9514 5.97192C37.7353 5.97192 38.3186 6.20207 38.7014 6.66235C39.0842 7.12264 39.2802 7.81079 39.2893 8.72681V13.5051H37.3137V8.77466C37.3137 8.35539 37.2226 8.05233 37.0403 7.86548C36.858 7.67407 36.5549 7.57837 36.1311 7.57837C35.5751 7.57837 35.1581 7.81535 34.8801 8.28931V13.5051H32.9045V6.10864H34.7639ZM44.4094 13.5051V3.552H47.8958C49.1034 3.552 50.0194 3.78442 50.6438 4.24927C51.2681 4.70955 51.5803 5.38631 51.5803 6.27954C51.5803 6.76717 51.455 7.19784 51.2043 7.57153C50.9537 7.94067 50.6051 8.21183 50.1584 8.38501C50.6689 8.51261 51.0699 8.7701 51.3616 9.15747C51.6578 9.54484 51.8059 10.0188 51.8059 10.5793C51.8059 11.5364 51.5006 12.261 50.8899 12.7532C50.2792 13.2454 49.4088 13.496 48.2786 13.5051H44.4094ZM46.4602 9.17114V11.8577H48.217C48.7001 11.8577 49.0761 11.7437 49.345 11.5159C49.6184 11.2834 49.7551 10.9644 49.7551 10.5588C49.7551 9.64738 49.2834 9.18481 48.3401 9.17114H46.4602ZM46.4602 7.72192H47.9778C49.0123 7.70369 49.5295 7.29126 49.5295 6.48462C49.5295 6.03345 49.3974 5.70988 49.1331 5.51392C48.8733 5.3134 48.4609 5.21313 47.8958 5.21313H46.4602V7.72192ZM52.9133 9.73853C52.9133 9.0048 53.0546 8.35083 53.3372 7.77661C53.6197 7.20239 54.0253 6.75806 54.554 6.4436C55.0872 6.12915 55.7047 5.97192 56.4065 5.97192C57.4045 5.97192 58.218 6.27726 58.8469 6.88794C59.4804 7.49862 59.8336 8.32804 59.9065 9.37622L59.9202 9.88208C59.9202 11.0168 59.6034 11.9283 58.97 12.6165C58.3365 13.3 57.4866 13.6418 56.4202 13.6418C55.3538 13.6418 54.5015 13.3 53.8635 12.6165C53.2301 11.9329 52.9133 11.0032 52.9133 9.82739V9.73853ZM54.8889 9.88208C54.8889 10.5839 55.0211 11.1217 55.2854 11.4954C55.5497 11.8645 55.928 12.0491 56.4202 12.0491C56.8987 12.0491 57.2724 11.8668 57.5413 11.5022C57.8101 11.1331 57.9446 10.5452 57.9446 9.73853C57.9446 9.05037 57.8101 8.51717 57.5413 8.13892C57.2724 7.76066 56.8941 7.57153 56.4065 7.57153C55.9234 7.57153 55.5497 7.76066 55.2854 8.13892C55.0211 8.51261 54.8889 9.09367 54.8889 9.88208ZM60.8293 9.73853C60.8293 9.0048 60.9706 8.35083 61.2532 7.77661C61.5357 7.20239 61.9413 6.75806 62.47 6.4436C63.0032 6.12915 63.6207 5.97192 64.3225 5.97192C65.3206 5.97192 66.134 6.27726 66.7629 6.88794C67.3964 7.49862 67.7496 8.32804 67.8225 9.37622L67.8362 9.88208C67.8362 11.0168 67.5194 11.9283 66.886 12.6165C66.2525 13.3 65.4026 13.6418 64.3362 13.6418C63.2698 13.6418 62.4176 13.3 61.7795 12.6165C61.1461 11.9329 60.8293 11.0032 60.8293 9.82739V9.73853ZM62.8049 9.88208C62.8049 10.5839 62.9371 11.1217 63.2014 11.4954C63.4657 11.8645 63.844 12.0491 64.3362 12.0491C64.8147 12.0491 65.1884 11.8668 65.4573 11.5022C65.7262 11.1331 65.8606 10.5452 65.8606 9.73853C65.8606 9.05037 65.7262 8.51717 65.4573 8.13892C65.1884 7.76066 64.8101 7.57153 64.3225 7.57153C63.8394 7.57153 63.4657 7.76066 63.2014 8.13892C62.9371 8.51261 62.8049 9.09367 62.8049 9.88208ZM71.7395 10.5383L71.0286 11.2493V13.5051H69.053V3.00513H71.0286V8.82251L71.4114 8.33032L73.3049 6.10864H75.677L73.0042 9.19165L75.9094 13.5051H73.6399L71.7395 10.5383ZM80.5374 11.4612C80.5374 11.2196 80.4166 11.0305 80.175 10.8938C79.9381 10.7525 79.5553 10.6272 79.0266 10.5178C77.2675 10.1487 76.3879 9.40129 76.3879 8.27563C76.3879 7.61938 76.6591 7.07251 77.2014 6.63501C77.7483 6.19295 78.4615 5.97192 79.3411 5.97192C80.2799 5.97192 81.0295 6.19295 81.5901 6.63501C82.1552 7.07707 82.4377 7.65129 82.4377 8.35767H80.4622C80.4622 8.07511 80.371 7.84269 80.1887 7.6604C80.0064 7.47355 79.7216 7.38013 79.3342 7.38013C79.0015 7.38013 78.7441 7.45532 78.5618 7.60571C78.3795 7.7561 78.2883 7.94751 78.2883 8.17993C78.2883 8.39868 78.3909 8.57642 78.5959 8.71313C78.8056 8.8453 79.1565 8.96151 79.6487 9.06177C80.1409 9.15747 80.5556 9.26685 80.8928 9.38989C81.9364 9.77271 82.4583 10.4358 82.4583 11.3792C82.4583 12.0536 82.1689 12.6005 81.5901 13.0198C81.0113 13.4345 80.2639 13.6418 79.3479 13.6418C78.7281 13.6418 78.1767 13.5325 77.6936 13.3137C77.2151 13.0904 76.8391 12.7874 76.5657 12.4045C76.2922 12.0172 76.1555 11.6002 76.1555 11.1536H78.0286C78.0468 11.5045 78.1767 11.7734 78.4182 11.9602C78.6597 12.1471 78.9833 12.2405 79.3889 12.2405C79.7672 12.2405 80.052 12.1698 80.2434 12.0286C80.4394 11.8827 80.5374 11.6936 80.5374 11.4612ZM85.6643 6.91528C86.1884 6.28638 86.8469 5.97192 87.6399 5.97192C89.2441 5.97192 90.0575 6.90389 90.0803 8.76782V13.5051H88.1047V8.82251C88.1047 8.39868 88.0136 8.08651 87.8313 7.88599C87.649 7.68091 87.3459 7.57837 86.9221 7.57837C86.3433 7.57837 85.9241 7.80168 85.6643 8.24829V13.5051H83.6887V3.00513H85.6643V6.91528ZM91.2629 9.73853C91.2629 9.0048 91.4042 8.35083 91.6868 7.77661C91.9693 7.20239 92.3749 6.75806 92.9036 6.4436C93.4368 6.12915 94.0543 5.97192 94.7561 5.97192C95.7542 5.97192 96.5676 6.27726 97.1965 6.88794C97.83 7.49862 98.1832 8.32804 98.2561 9.37622L98.2698 9.88208C98.2698 11.0168 97.953 11.9283 97.3196 12.6165C96.6861 13.3 95.8362 13.6418 94.7698 13.6418C93.7034 13.6418 92.8512 13.3 92.2131 12.6165C91.5797 11.9329 91.2629 11.0032 91.2629 9.82739V9.73853ZM93.2385 9.88208C93.2385 10.5839 93.3707 11.1217 93.635 11.4954C93.8993 11.8645 94.2776 12.0491 94.7698 12.0491C95.2483 12.0491 95.622 11.8668 95.8909 11.5022C96.1597 11.1331 96.2942 10.5452 96.2942 9.73853C96.2942 9.05037 96.1597 8.51717 95.8909 8.13892C95.622 7.76066 95.2437 7.57153 94.7561 7.57153C94.273 7.57153 93.8993 7.76066 93.635 8.13892C93.3707 8.51261 93.2385 9.09367 93.2385 9.88208ZM106.145 9.87524C106.145 11.0146 105.885 11.9283 105.365 12.6165C104.851 13.3 104.153 13.6418 103.274 13.6418C102.526 13.6418 101.922 13.3821 101.462 12.8625V16.3489H99.4866V6.10864H101.319L101.387 6.83325C101.865 6.25903 102.49 5.97192 103.26 5.97192C104.171 5.97192 104.88 6.30916 105.386 6.98364C105.892 7.65812 106.145 8.58781 106.145 9.77271V9.87524ZM104.169 9.73169C104.169 9.04354 104.046 8.51261 103.8 8.13892C103.559 7.76522 103.205 7.57837 102.74 7.57837C102.121 7.57837 101.695 7.81535 101.462 8.28931V11.3176C101.704 11.8053 102.134 12.0491 102.754 12.0491C103.698 12.0491 104.169 11.2766 104.169 9.73169Z" fill="black"/>
<path d="M53.6585 22.4947V43.4947M53.6585 22.4947C53.6585 22.4947 44.9805 16.4947 36.3025 21.4947V43.4947C44.9805 38.4947 53.6585 43.4947 53.6585 43.4947C53.6585 43.4947 62.3365 38.4947 71.0145 43.4947V21.4947C62.3365 16.4947 53.6585 22.4947 53.6585 22.4947Z" stroke="black" stroke-width="2" stroke-linecap="round" stroke-linejoin="round"/>
</svg>
